<svg data-v-423bf9ae="" xmlns="http://www.w3.org/2000/svg" viewBox="0 0 614 90" class="iconLeft"><!----><!----><!----><g data-v-423bf9ae="" id="d8ecf424-b1c7-418b-8495-f09d90fa8863" fill="white" transform="matrix(5.923000335693359,0,0,5.923000335693359,109.65161895751953,-3.894374132156372)"><path d="M3.99 4.68L5.35 9.32L2.67 9.32L3.99 4.68ZM8.64 13.17L8.64 12.64L7.59 12.64L4.77 3.19L3.89 3.19L1.15 12.35L1.15 12.35Q0.99 12.52 0.77 12.58L0.77 12.58L0.77 12.58Q0.55 12.64 0.06 12.64L0.06 12.64L0.06 13.17L2.94 13.17L2.94 12.64L2.94 12.64Q2.34 12.64 2.10 12.59L2.10 12.59L2.10 12.59Q1.86 12.54 1.81 12.31L1.81 12.31L2.53 9.84L5.49 9.84L6.30 12.64L5.14 12.64L5.14 13.17L8.64 13.17ZM13.34 12.64L12.15 12.66L12.15 8.48L13.51 8.43L13.51 8.43Q13.85 8.72 14.05 8.97L14.05 8.97L14.05 8.97Q14.25 9.21 14.40 9.46L14.40 9.46L14.40 9.46Q14.55 9.70 14.67 9.97L14.67 9.97L14.67 9.97Q14.80 10.25 14.97 10.60L14.97 10.60L14.97 10.60Q15.11 10.88 15.23 11.23L15.23 11.23L15.23 11.23Q15.36 11.59 15.46 11.91L15.46 11.91L15.46 11.91Q15.55 12.22 15.61 12.43L15.61 12.43L15.61 12.43Q15.67 12.64 15.67 12.64L15.67 12.64L14.53 12.64L14.53 13.17L18.16 13.17L18.16 12.64L18.16 12.64Q17.91 12.64 17.72 12.63L17.72 12.63L17.72 12.63Q17.53 12.63 17.42 12.61L17.42 12.61L17.42 12.61Q17.19 12.60 16.91 12.38L16.91 12.38L16.91 12.38Q16.91 12.38 16.86 12.16L16.86 12.16L16.86 12.16Q16.80 11.94 16.70 11.62L16.70 11.62L16.70 11.62Q16.60 11.30 16.48 10.94L16.48 10.94L16.48 10.94Q16.35 10.58 16.21 10.29L16.21 10.29L16.21 10.29Q15.99 9.83 15.81 9.46L15.81 9.46L15.81 9.46Q15.62 9.09 15.39 8.76L15.39 8.76L15.39 8.76Q15.16 8.43 14.85 8.13L14.85 8.13L14.85 8.13Q14.55 7.83 14.07 7.50L14.07 7.50L14.07 7.50Q13.97 7.36 13.97 7.22L13.97 7.22L13.97 7.22Q13.97 7.03 14.18 6.82L14.18 6.82L14.18 6.82Q14.36 6.64 14.89 6.01L14.89 6.01L14.89 6.01Q15.41 5.39 16.30 4.30L16.30 4.30L16.30 4.30Q16.65 4.05 16.98 3.94L16.98 3.94L16.98 3.94Q17.32 3.84 17.88 3.84L17.88 3.84L17.88 3.30L14.60 3.30L14.60 3.84L14.60 3.84Q15.25 3.84 15.46 3.93L15.46 3.93L15.46 3.93Q15.60 3.99 15.60 4.13L15.60 4.13L15.60 4.13Q15.60 4.21 15.54 4.31L15.54 4.31L12.15 8.18L12.15 3.84L13.34 3.84L13.34 3.30L9.83 3.30L9.83 3.84L10.93 3.82L10.93 12.64L9.83 12.64L9.83 13.17L13.34 13.17L13.34 12.64ZM21.31 9.37L19.03 9.37L18.93 10.12L20.17 10.09L22.46 10.09L22.55 9.34L21.31 9.37ZM29.92 11.10L29.92 11.10L29.92 9.67L29.92 9.67Q29.92 9.20 29.83 8.83L29.83 8.83L29.83 8.83Q29.75 8.47 29.51 8.21L29.51 8.21L29.51 8.21Q29.26 7.95 28.81 7.79L28.81 7.79L28.81 7.79Q28.36 7.63 27.65 7.55L27.65 7.55L26.42 7.55L26.42 7.55Q25.98 7.50 25.67 7.43L25.67 7.43L25.67 7.43Q25.35 7.35 25.15 7.21L25.15 7.21L25.15 7.21Q24.95 7.07 24.85 6.85L24.85 6.85L24.85 6.85Q24.75 6.64 24.75 6.30L24.75 6.30L24.75 5.18L24.75 5.18Q24.75 3.71 26.22 3.71L26.22 3.71L26.22 3.71Q26.81 3.71 27.33 3.81L27.33 3.81L27.33 3.81Q27.85 3.92 28.23 4.12L28.23 4.12L28.23 4.12Q28.62 4.33 28.83 4.61L28.83 4.61L28.83 4.61Q29.05 4.89 29.05 5.24L29.05 5.24L29.05 6.06L29.61 6.06L29.61 3.36L29.23 3.36L29.23 3.36Q29.23 3.42 29.15 3.56L29.15 3.56L29.15 3.56Q29.11 3.63 29.02 3.63L29.02 3.63L29.02 3.63Q28.94 3.63 28.81 3.54L28.81 3.54L28.81 3.54Q28.48 3.47 28.18 3.41L28.18 3.41L28.18 3.41Q27.87 3.35 27.55 3.30L27.55 3.30L27.55 3.30Q27.23 3.25 26.87 3.22L26.87 3.22L26.87 3.22Q26.50 3.19 26.07 3.19L26.07 3.19L26.07 3.19Q25.06 3.19 24.51 3.73L24.51 3.73L24.51 3.73Q23.97 4.27 23.97 5.28L23.97 5.28L23.97 6.59L23.97 6.59Q23.97 7.10 24.07 7.50L24.07 7.50L24.07 7.50Q24.16 7.91 24.42 8.18L24.42 8.18L24.42 8.18Q24.68 8.46 25.12 8.60L25.12 8.60L25.12 8.60Q25.56 8.75 26.24 8.75L26.24 8.75L27.43 8.75L27.43 8.75Q27.97 8.81 28.30 8.93L28.30 8.93L28.30 8.93Q28.63 9.04 28.81 9.23L28.81 9.23L28.81 9.23Q28.98 9.41 29.04 9.66L29.04 9.66L29.04 9.66Q29.11 9.91 29.11 10.25L29.11 10.25L29.11 11.31L29.11 11.31Q29.11 12.77 27.51 12.77L27.51 12.77L27.51 12.77Q26.87 12.77 26.31 12.66L26.31 12.66L26.31 12.66Q25.76 12.54 25.35 12.34L25.35 12.34L25.35 12.34Q24.93 12.14 24.70 11.84L24.70 11.84L24.70 11.84Q24.47 11.55 24.47 11.17L24.47 11.17L24.47 10.22L23.91 10.22L23.91 13.22L24.30 13.22L24.30 13.22Q24.32 13.16 24.35 13.02L24.35 13.02L24.35 13.02Q24.36 12.92 24.47 12.92L24.47 12.92L24.47 12.92Q24.51 12.92 24.60 12.95L24.60 12.95L24.60 12.95Q24.95 13.01 25.28 13.07L25.28 13.07L25.28 13.07Q25.61 13.13 25.96 13.18L25.96 13.18L25.96 13.18Q26.31 13.23 26.69 13.26L26.69 13.26L26.69 13.26Q27.08 13.29 27.54 13.29L27.54 13.29L27.54 13.29Q28.67 13.29 29.30 12.73L29.30 12.73L29.30 12.73Q29.92 12.17 29.92 11.10ZM30.77 13.17L37.98 13.17L37.98 10.51L37.42 10.51L37.42 11.48L37.42 11.48Q37.42 11.86 37.33 12.09L37.33 12.09L37.33 12.09Q37.24 12.32 37.05 12.45L37.05 12.45L37.05 12.45Q36.86 12.57 36.58 12.61L36.58 12.61L36.58 12.61Q36.29 12.66 35.90 12.66L35.90 12.66L33.12 12.66L33.12 8.43L35.22 8.43L35.22 8.43Q35.57 8.43 35.78 8.58L35.78 8.58L35.78 8.58Q35.98 8.74 35.98 9.18L35.98 9.18L35.98 9.28L36.23 9.28L36.23 7.01L35.98 7.01L35.98 7.14L35.98 7.14Q35.98 7.50 35.78 7.71L35.78 7.71L35.78 7.71Q35.57 7.91 35.22 7.91L35.22 7.91L33.12 7.91L33.12 3.82L35.94 3.82L35.94 3.82Q36.47 3.82 36.81 4.06L36.81 4.06L36.81 4.06Q37.16 4.30 37.16 4.84L37.16 4.84L37.16 5.73L37.72 5.73L37.63 3.30L30.77 3.30L30.77 3.84L31.89 3.82L31.89 12.64L30.77 12.64L30.77 13.17ZM41.61 12.66L41.61 8.33L43.29 8.33L43.29 8.33Q43.68 8.33 43.96 8.41L43.96 8.41L43.96 8.41Q44.24 8.48 44.42 8.66L44.42 8.66L44.42 8.66Q44.60 8.83 44.69 9.13L44.69 9.13L44.69 9.13Q44.77 9.42 44.79 9.84L44.79 9.84L44.83 11.70L44.83 11.70Q44.84 12.12 44.92 12.36L44.92 12.36L44.92 12.36Q45.00 12.60 45.14 12.73L45.14 12.73L45.14 12.73Q45.29 12.87 45.49 12.94L45.49 12.94L45.49 12.94Q45.68 13.02 45.92 13.12L45.92 13.12L45.92 13.12Q46.17 13.23 46.53 13.22L46.53 13.22L46.53 13.22Q46.89 13.22 47.12 13.17L47.12 13.17L47.12 13.17Q47.35 13.13 47.38 13.12L47.38 13.12L47.33 12.61L47.33 12.61Q46.98 12.68 46.79 12.68L46.79 12.68L46.79 12.68Q46.58 12.68 46.47 12.63L46.47 12.63L46.47 12.63Q46.17 12.47 46.16 11.83L46.16 11.83L46.12 9.88L46.12 9.88Q46.10 9.49 46.01 9.17L46.01 9.17L46.01 9.17Q45.92 8.85 45.69 8.62L45.69 8.62L45.69 8.62Q45.46 8.39 45.07 8.25L45.07 8.25L45.07 8.25Q44.67 8.11 44.07 8.06L44.07 8.06L44.07 8.06Q45.28 7.94 45.75 7.48L45.75 7.48L45.75 7.48Q46.23 7.01 46.23 6.23L46.23 6.23L46.23 5.14L46.23 5.14Q46.23 4.21 45.62 3.76L45.62 3.76L45.62 3.76Q45.01 3.30 43.86 3.30L43.86 3.30L39.19 3.30L39.19 3.84L40.38 3.82L40.38 12.64L39.19 12.64L39.19 13.17L42.80 13.17L42.80 12.64L41.61 12.66ZM43.34 7.81L41.61 7.81L41.61 3.82L43.37 3.82L43.37 3.82Q44.23 3.82 44.60 4.18L44.60 4.18L44.60 4.18Q44.98 4.54 44.98 5.33L44.98 5.33L44.98 6.29L44.98 6.29Q44.98 7.08 44.58 7.45L44.58 7.45L44.58 7.45Q44.18 7.81 43.34 7.81L43.34 7.81ZM52.05 12.64L50.93 12.66L50.93 3.84L52.05 3.84L52.05 3.30L48.58 3.30L48.58 3.84L49.70 3.82L49.70 12.64L48.58 12.64L48.58 13.17L52.05 13.17L52.05 12.64ZM53.26 13.17L60.47 13.17L60.47 10.51L59.91 10.51L59.91 11.48L59.91 11.48Q59.91 11.86 59.82 12.09L59.82 12.09L59.82 12.09Q59.72 12.32 59.54 12.45L59.54 12.45L59.54 12.45Q59.35 12.57 59.06 12.61L59.06 12.61L59.06 12.61Q58.77 12.66 58.38 12.66L58.38 12.66L55.61 12.66L55.61 8.43L57.71 8.43L57.71 8.43Q58.06 8.43 58.26 8.58L58.26 8.58L58.26 8.58Q58.46 8.74 58.46 9.18L58.46 9.18L58.46 9.28L58.72 9.28L58.72 7.01L58.46 7.01L58.46 7.14L58.46 7.14Q58.46 7.50 58.26 7.71L58.26 7.71L58.26 7.71Q58.06 7.91 57.71 7.91L57.71 7.91L55.61 7.91L55.61 3.82L58.42 3.82L58.42 3.82Q58.95 3.82 59.30 4.06L59.30 4.06L59.30 4.06Q59.64 4.30 59.64 4.84L59.64 4.84L59.64 5.73L60.20 5.73L60.12 3.30L53.26 3.30L53.26 3.84L54.38 3.82L54.38 12.64L53.26 12.64L53.26 13.17ZM67.82 11.10L67.82 11.10L67.82 9.67L67.82 9.67Q67.82 9.20 67.73 8.83L67.73 8.83L67.73 8.83Q67.65 8.47 67.40 8.21L67.40 8.21L67.40 8.21Q67.16 7.95 66.71 7.79L66.71 7.79L66.71 7.79Q66.26 7.63 65.55 7.55L65.55 7.55L64.32 7.55L64.32 7.55Q63.88 7.50 63.57 7.43L63.57 7.43L63.57 7.43Q63.25 7.35 63.05 7.21L63.05 7.21L63.05 7.21Q62.85 7.07 62.75 6.85L62.75 6.85L62.75 6.85Q62.65 6.64 62.65 6.30L62.65 6.30L62.65 5.18L62.65 5.18Q62.65 3.71 64.12 3.71L64.12 3.71L64.12 3.71Q64.71 3.71 65.23 3.81L65.23 3.81L65.23 3.81Q65.74 3.92 66.13 4.12L66.13 4.12L66.13 4.12Q66.51 4.33 66.73 4.61L66.73 4.61L66.73 4.61Q66.95 4.89 66.95 5.24L66.95 5.24L66.95 6.06L67.51 6.06L67.51 3.36L67.13 3.36L67.13 3.36Q67.13 3.42 67.05 3.56L67.05 3.56L67.05 3.56Q67.00 3.63 66.92 3.63L66.92 3.63L66.92 3.63Q66.84 3.63 66.71 3.54L66.71 3.54L66.71 3.54Q66.37 3.47 66.07 3.41L66.07 3.41L66.07 3.41Q65.77 3.35 65.45 3.30L65.45 3.30L65.45 3.30Q65.13 3.25 64.76 3.22L64.76 3.22L64.76 3.22Q64.40 3.19 63.97 3.19L63.97 3.19L63.97 3.19Q62.96 3.19 62.41 3.73L62.41 3.73L62.41 3.73Q61.87 4.27 61.87 5.28L61.87 5.28L61.87 6.59L61.87 6.59Q61.87 7.10 61.96 7.50L61.96 7.50L61.96 7.50Q62.06 7.91 62.32 8.18L62.32 8.18L62.32 8.18Q62.58 8.46 63.02 8.60L63.02 8.60L63.02 8.60Q63.46 8.75 64.13 8.75L64.13 8.75L65.32 8.75L65.32 8.75Q65.87 8.81 66.20 8.93L66.20 8.93L66.20 8.93Q66.53 9.04 66.70 9.23L66.70 9.23L66.70 9.23Q66.88 9.41 66.94 9.66L66.94 9.66L66.94 9.66Q67.00 9.91 67.00 10.25L67.00 10.25L67.00 11.31L67.00 11.31Q67.00 12.77 65.41 12.77L65.41 12.77L65.41 12.77Q64.76 12.77 64.21 12.66L64.21 12.66L64.21 12.66Q63.66 12.54 63.25 12.34L63.25 12.34L63.25 12.34Q62.83 12.14 62.60 11.84L62.60 11.84L62.60 11.84Q62.37 11.55 62.37 11.17L62.37 11.17L62.37 10.22L61.81 10.22L61.81 13.22L62.20 13.22L62.20 13.22Q62.22 13.16 62.24 13.02L62.24 13.02L62.24 13.02Q62.26 12.92 62.37 12.92L62.37 12.92L62.37 12.92Q62.41 12.92 62.50 12.95L62.50 12.95L62.50 12.95Q62.85 13.01 63.18 13.07L63.18 13.07L63.18 13.07Q63.50 13.13 63.85 13.18L63.85 13.18L63.85 13.18Q64.20 13.23 64.59 13.26L64.59 13.26L64.59 13.26Q64.97 13.29 65.44 13.29L65.44 13.29L65.44 13.29Q66.57 13.29 67.19 12.73L67.19 12.73L67.19 12.73Q67.82 12.17 67.82 11.10ZM78.44 12.66L77.80 12.67L77.80 10.18L78.93 10.18L78.93 9.32L77.80 9.32L77.80 4.49L76.96 4.49L77.34 3.93L77.11 3.36L72.81 9.77L72.81 10.18L76.69 10.18L76.69 12.66L76.03 12.66L76.03 13.17L78.44 13.17L78.44 12.66ZM73.72 9.32L76.64 4.98L76.69 5.78L76.69 9.32L73.72 9.32ZM79.28 5.84L79.28 6.96L79.28 6.96Q79.28 8.23 79.96 8.81L79.96 8.81L79.96 8.81Q80.64 9.39 82.04 9.39L82.04 9.39L82.04 9.39Q82.84 9.39 83.37 9.14L83.37 9.14L83.37 9.14Q83.71 9.00 84.03 8.46L84.03 8.46L84.03 9.32L84.03 9.32Q84.03 10.19 83.86 10.81L83.86 10.81L83.86 10.81Q83.69 11.42 83.32 11.84L83.32 11.84L83.32 11.84Q82.95 12.25 82.35 12.49L82.35 12.49L82.35 12.49Q81.75 12.73 80.86 12.82L80.86 12.82L80.86 12.82Q80.57 12.82 80.41 12.80L80.41 12.80L80.41 12.80Q80.25 12.77 80.16 12.71L80.16 12.71L80.16 12.71Q80.08 12.64 80.07 12.54L80.07 12.54L80.07 12.54Q80.05 12.43 80.07 12.29L80.07 12.29L80.07 12.29Q80.08 12.19 80.15 12.14L80.15 12.14L80.15 12.14Q80.22 12.08 80.21 11.98L80.21 11.98L80.21 11.98Q80.18 11.79 79.95 11.78L79.95 11.78L79.95 11.78Q79.72 11.77 79.58 11.90L79.58 11.90L79.58 11.90Q79.49 11.97 79.48 12.12L79.48 12.12L79.48 12.12Q79.48 12.28 79.51 12.38L79.51 12.38L79.51 12.38Q79.53 12.49 79.53 12.50L79.53 12.50L79.53 12.50Q79.51 12.80 79.59 12.97L79.59 12.97L79.59 12.97Q79.67 13.15 79.85 13.22L79.85 13.22L79.85 13.22Q80.02 13.30 80.28 13.31L80.28 13.31L80.28 13.31Q80.54 13.33 80.88 13.31L80.88 13.31L80.88 13.31Q81.77 13.27 82.56 13.00L82.56 13.00L82.56 13.00Q83.34 12.73 83.92 12.24L83.92 12.24L83.92 12.24Q84.49 11.76 84.82 11.06L84.82 11.06L84.82 11.06Q85.15 10.36 85.15 9.45L85.15 9.45L85.15 6.29L85.15 6.29Q85.15 4.77 84.50 4.10L84.50 4.10L84.50 4.10Q83.85 3.43 82.64 3.43L82.64 3.43L81.61 3.43L81.61 3.43Q81.10 3.43 80.67 3.60L80.67 3.60L80.67 3.60Q80.25 3.78 79.94 4.10L79.94 4.10L79.94 4.10Q79.63 4.42 79.46 4.86L79.46 4.86L79.46 4.86Q79.28 5.31 79.28 5.84L79.28 5.84ZM84.03 6.24L84.03 7.45L84.03 7.45Q83.90 8.34 83.38 8.60L83.38 8.60L83.38 8.60Q82.82 8.88 82.17 8.88L82.17 8.88L82.17 8.88Q81.20 8.88 80.81 8.41L80.81 8.41L80.81 8.41Q80.42 7.94 80.42 6.86L80.42 6.86L80.42 5.94L80.42 5.94Q80.42 4.97 80.76 4.45L80.76 4.45L80.76 4.45Q81.10 3.93 81.79 3.93L81.79 3.93L82.63 3.93L82.63 3.93Q83.01 3.93 83.27 4.05L83.27 4.05L83.27 4.05Q83.54 4.17 83.71 4.44L83.71 4.44L83.71 4.44Q83.87 4.70 83.95 5.15L83.95 5.15L83.95 5.15Q84.03 5.60 84.03 6.24L84.03 6.24Z"></path></g><!----><g data-v-423bf9ae="" id="057e0584-5265-465e-8290-3e5ea1d9bc71" transform="matrix(1.0000449419021606,0,0,1.0000449419021606,-4.003730773925781,-5.000225067138672)" stroke="none" fill="white"><path d="M82.522 52.233c-2.605 1.972-4.939 4.827-7.147 6.638-.81-3.461-2.918-6.486-6.174-8.143-.589-.3-1.182-.541-1.778-.728a11.493 11.493 0 0 0 1.778-.728c3.256-1.657 5.365-4.682 6.174-8.143 2.208 1.811 4.542 4.666 7.147 6.638 4.311 3.261 10.443 2.874 12.149-2.722 1.184-3.883-.915-8.76-4.895-9.502-1.367-.255-3.048-.205-4.639.793-.982.616-1.679 1.666-1.685 2.601a2.136 2.136 0 0 0 2.141 2.141c1.182 0 2.141-1.116 2.141-2.141 0-1.024-.516-1.614-1.257-1.951 2.401-.911 4.91-.289 6.327 2.354 2.947 5.499-1.889 10.694-7.244 8.339-3.585-1.578-6.726-6.005-9.884-8.314.601-3.866-.309-9.217 1.11-12.868 2.121-5.452 9.215-5.198 11.019.774.867 2.871-.467 5.085-2.81 6.139.286-.763.234-1.544-.49-2.268-.725-.724-2.192-.836-3.027 0a2.135 2.135 0 0 0 0 3.027c.666.657 1.901.907 3.031.648 1.83-.419 3.054-1.572 3.841-2.719 2.289-3.339.324-8.272-3.258-10.18-5.164-2.751-9.773 1.311-10.516 6.666-.448 3.236-.079 6.905-.36 9.746-3.021-1.875-6.65-2.522-10.125-1.392-.628.204-1.218.453-1.772.742.29-.554.538-1.144.742-1.772 1.13-3.474.483-7.104-1.392-10.125 2.842-.28 6.51.088 9.747-.36 5.355-.742 9.417-5.352 6.666-10.516-1.908-3.582-6.841-5.547-10.18-3.258-1.147.786-2.3 2.01-2.719 3.84-.259 1.13-.01 2.365.647 3.031.83.842 2.191.836 3.027 0 .836-.835.724-2.303 0-3.027-.725-.724-1.506-.776-2.269-.49 1.053-2.342 3.268-3.677 6.139-2.809 5.972 1.804 6.226 8.898.774 11.019-3.65 1.419-9.001.509-12.867 1.111-2.309-3.159-6.736-6.299-8.314-9.884-2.355-5.355 2.84-10.191 8.339-7.244 2.644 1.417 3.266 3.926 2.354 6.327-.337-.742-.926-1.257-1.95-1.257-1.025 0-2.141.959-2.141 2.141s.958 2.149 2.141 2.141c.935-.006 1.985-.703 2.601-1.685.998-1.591 1.048-3.272.793-4.639-.743-3.979-5.62-6.078-9.502-4.894-5.596 1.706-5.984 7.838-2.723 12.149 1.972 2.605 4.827 4.939 6.638 7.147-3.461.81-6.486 2.918-8.144 6.174-.3.589-.541 1.182-.728 1.778a11.493 11.493 0 0 0-.728-1.778c-1.657-3.256-4.682-5.365-8.143-6.174 1.811-2.208 4.666-4.542 6.638-7.147 3.261-4.311 2.874-10.443-2.723-12.149-3.882-1.184-8.76.915-9.502 4.894-.255 1.367-.205 3.048.793 4.639.615.982 1.666 1.679 2.601 1.685a2.136 2.136 0 0 0 2.141-2.141c0-1.182-1.116-2.141-2.141-2.141s-1.614.516-1.95 1.257c-.911-2.401-.29-4.911 2.354-6.327 5.499-2.947 10.694 1.889 8.339 7.244-1.578 3.585-6.005 6.726-8.314 9.884-3.866-.602-9.217.309-12.868-1.111-5.452-2.121-5.198-9.215.774-11.019 2.871-.867 5.085.467 6.138 2.809-.763-.286-1.544-.234-2.268.49-.724.724-.836 2.192 0 3.027a2.135 2.135 0 0 0 3.027 0c.657-.666.907-1.901.647-3.031-.419-1.83-1.572-3.054-2.719-3.84-3.339-2.289-8.272-.324-10.18 3.258-2.75 5.164 1.312 9.774 6.666 10.516 3.236.448 6.905.079 9.747.36-1.875 3.021-2.522 6.65-1.392 10.125.204.628.453 1.218.743 1.772a11.558 11.558 0 0 0-1.772-.742c-3.474-1.13-7.104-.483-10.125 1.392-.28-2.841.088-6.51-.36-9.746-.742-5.355-5.352-9.417-10.516-6.666-3.582 1.908-5.547 6.841-3.258 10.18.786 1.147 2.01 2.3 3.841 2.719 1.13.259 2.365.009 3.031-.648a2.135 2.135 0 0 0 0-3.027c-.835-.836-2.303-.724-3.027 0-.724.724-.776 1.506-.49 2.268-2.342-1.053-3.677-3.268-2.81-6.139 1.804-5.973 8.898-6.226 11.019-.774 1.419 3.65.509 9.002 1.111 12.868-3.159 2.309-6.299 6.736-9.884 8.314-5.354 2.355-10.191-2.84-7.244-8.339 1.417-2.643 3.927-3.266 6.327-2.354-.742.337-1.258.926-1.258 1.951s.959 2.141 2.141 2.141a2.135 2.135 0 0 0 2.14-2.141c-.007-.935-.703-1.985-1.685-2.601-1.591-.998-3.272-1.048-4.639-.793-3.979.742-6.078 5.62-4.894 9.502 1.707 5.597 7.838 5.984 12.149 2.722 2.605-1.972 4.939-4.827 7.147-6.638.81 3.461 2.918 6.486 6.174 8.143.589.3 1.182.541 1.778.728-.596.187-1.189.428-1.778.728-3.256 1.657-5.365 4.682-6.174 8.143-2.208-1.811-4.542-4.666-7.147-6.638-4.311-3.261-10.443-2.874-12.149 2.722-1.184 3.882.915 8.76 4.894 9.502 1.367.255 3.048.205 4.639-.793.982-.616 1.678-1.666 1.685-2.601a2.136 2.136 0 0 0-2.14-2.141c-1.182 0-2.141 1.116-2.141 2.141 0 1.024.516 1.614 1.258 1.951-2.401.911-4.911.289-6.327-2.354-2.947-5.498 1.889-10.694 7.244-8.339 3.585 1.578 6.726 6.005 9.884 8.314-.602 3.866.309 9.217-1.111 12.868-2.121 5.452-9.215 5.198-11.019-.774-.867-2.871.468-5.085 2.81-6.138-.286.763-.234 1.544.49 2.268.725.724 2.192.836 3.027 0a2.135 2.135 0 0 0 0-3.027c-.666-.657-1.901-.907-3.031-.648-1.83.419-3.054 1.572-3.841 2.719-2.289 3.339-.324 8.272 3.258 10.18 5.164 2.751 9.773-1.311 10.516-6.666.448-3.236.08-6.905.36-9.747 3.021 1.875 6.65 2.522 10.125 1.392a11.558 11.558 0 0 0 1.772-.742 11.52 11.52 0 0 0-.743 1.772c-1.13 3.474-.483 7.104 1.392 10.124-2.841.281-6.51-.088-9.747.36-5.354.742-9.417 5.352-6.666 10.516 1.908 3.582 6.841 5.547 10.18 3.258 1.147-.786 2.3-2.01 2.719-3.841.259-1.13.009-2.365-.647-3.031a2.135 2.135 0 0 0-3.027 0c-.836.835-.724 2.303 0 3.027.724.724 1.506.776 2.268.49-1.053 2.342-3.268 3.677-6.138 2.809-5.973-1.804-6.226-8.898-.774-11.019 3.65-1.419 9.001-.509 12.868-1.111 2.309 3.159 6.736 6.299 8.314 9.884 2.355 5.355-2.841 10.191-8.339 7.244-2.643-1.417-3.265-3.926-2.354-6.327.336.742.926 1.257 1.95 1.257s2.141-.959 2.141-2.141a2.136 2.136 0 0 0-2.141-2.141c-.935.007-1.985.703-2.601 1.685-.998 1.591-1.048 3.272-.793 4.639.742 3.979 5.62 6.078 9.502 4.894 5.596-1.706 5.984-7.838 2.723-12.149-1.972-2.605-4.827-4.939-6.638-7.147 3.461-.81 6.486-2.918 8.143-6.174.3-.588.541-1.182.728-1.778.187.596.428 1.189.728 1.778 1.657 3.256 4.682 5.365 8.144 6.174-1.811 2.208-4.666 4.542-6.638 7.147-3.261 4.311-2.874 10.443 2.723 12.149 3.882 1.184 8.76-.915 9.502-4.894.255-1.367.205-3.048-.793-4.639-.615-.982-1.666-1.679-2.601-1.685a2.136 2.136 0 0 0-2.141 2.141c0 1.182 1.116 2.141 2.141 2.141 1.024 0 1.614-.516 1.95-1.257.911 2.401.289 4.91-2.354 6.327-5.499 2.947-10.694-1.889-8.339-7.244 1.578-3.585 6.005-6.726 8.314-9.884 3.866.602 9.217-.309 12.867 1.111 5.452 2.121 5.198 9.215-.774 11.019-2.871.868-5.085-.467-6.139-2.809.763.286 1.544.234 2.269-.49.724-.724.836-2.192 0-3.027a2.135 2.135 0 0 0-3.027 0c-.657.666-.907 1.901-.647 3.031.419 1.83 1.572 3.054 2.719 3.841 3.339 2.289 8.272.324 10.18-3.258 2.751-5.164-1.311-9.774-6.666-10.516-3.236-.448-6.905-.079-9.747-.36 1.875-3.021 2.522-6.65 1.392-10.124a11.516 11.516 0 0 0-.742-1.772c.554.289 1.144.538 1.772.742 3.474 1.13 7.104.483 10.125-1.392.281 2.841-.088 6.51.36 9.747.742 5.354 5.352 9.416 10.516 6.666 3.582-1.908 5.547-6.841 3.258-10.18-.786-1.147-2.01-2.3-3.841-2.719-1.13-.259-2.365-.009-3.031.648a2.135 2.135 0 0 0 0 3.027c.836.836 2.303.724 3.027 0 .724-.724.776-1.506.49-2.268 2.342 1.053 3.677 3.268 2.81 6.138-1.804 5.973-8.898 6.226-11.019.774-1.419-3.65-.509-9.002-1.11-12.868 3.158-2.309 6.299-6.736 9.884-8.314 5.354-2.355 10.191 2.84 7.244 8.339-1.417 2.643-3.926 3.266-6.327 2.354.742-.337 1.257-.926 1.257-1.951s-.959-2.141-2.141-2.141a2.136 2.136 0 0 0-2.141 2.141c.006.935.703 1.985 1.685 2.601 1.591.998 3.272 1.049 4.639.793 3.979-.742 6.078-5.62 4.895-9.502-1.706-5.595-7.838-5.983-12.149-2.722zM63.309 38.877c1.352-.599 2.824-.848 4.297-.866 2.365-.029 4.426.765 6.355 2.064-.446 2.283-1.341 4.302-3.034 5.953-1.054 1.029-2.271 1.894-3.651 2.426-3.333 1.286-6.931.367-9.819-1.543.691-3.393 2.586-6.587 5.852-8.034zM42.85 50c0 .53-.026 1.06-.08 1.586A14.444 14.444 0 0 0 39.269 50c1.216-.36 2.393-.9 3.502-1.586.053.526.079 1.056.079 1.586zm-.438-7.588a14.471 14.471 0 0 0 3.598 1.354 15.806 15.806 0 0 1-2.242 2.243 14.562 14.562 0 0 0-1.356-3.597zm1.355 11.579a15.793 15.793 0 0 1 2.242 2.242c-1.269.3-2.483.749-3.598 1.355a14.469 14.469 0 0 0 1.356-3.597zm2.146.096a17.845 17.845 0 0 0-1.861-1.623c.113-.811.169-1.636.169-2.464s-.056-1.654-.169-2.464a17.845 17.845 0 0 0 1.861-1.623 17.948 17.948 0 0 0 1.623-1.861c.811.113 1.636.169 2.465.169.828 0 1.654-.056 2.464-.169a17.845 17.845 0 0 0 1.623 1.861 17.856 17.856 0 0 0 1.862 1.623c-.115.81-.17 1.636-.17 2.464 0 .828.056 1.653.169 2.464a18.068 18.068 0 0 0-3.485 3.484A17.862 17.862 0 0 0 50 55.78c-.828 0-1.654.056-2.465.169a17.729 17.729 0 0 0-1.622-1.862zm8.077-10.32a14.55 14.55 0 0 0 3.598-1.354 14.51 14.51 0 0 0-1.354 3.598c-.41-.334-.802-.69-1.177-1.066a15.597 15.597 0 0 1-1.067-1.178zm1.066 11.289c.375-.375.768-.731 1.177-1.065.3 1.269.749 2.483 1.354 3.597a14.498 14.498 0 0 0-3.598-1.355 15.82 15.82 0 0 1 1.067-1.177zM57.15 50c0-.53.026-1.06.08-1.586A14.482 14.482 0 0 0 60.731 50c-1.216.359-2.393.9-3.502 1.586A15.83 15.83 0 0 1 57.15 50zm-5.605-17.276c.532-1.38 1.397-2.597 2.426-3.651 1.651-1.693 3.67-2.589 5.953-3.034 1.3 1.929 2.094 3.99 2.065 6.355-.019 1.473-.268 2.945-.866 4.297-1.448 3.266-4.642 5.161-8.034 5.852-1.911-2.887-2.829-6.486-1.544-9.819zM50 39.269c.359 1.216.9 2.393 1.586 3.502a15.83 15.83 0 0 1-3.172-.001A14.482 14.482 0 0 0 50 39.269zm-9.925-13.23c2.283.446 4.302 1.341 5.953 3.034 1.029 1.054 1.894 2.271 2.426 3.651 1.286 3.333.367 6.932-1.543 9.819-3.393-.691-6.587-2.586-8.034-5.852-.599-1.352-.848-2.824-.866-4.297-.029-2.365.765-4.426 2.064-6.355zM29.073 46.028c-1.693-1.651-2.588-3.67-3.034-5.953 1.929-1.3 3.99-2.094 6.355-2.064 1.473.018 2.945.267 4.297.866 3.266 1.448 5.161 4.641 5.852 8.034-2.887 1.911-6.486 2.829-9.819 1.543-1.38-.532-2.597-1.397-3.651-2.426zm7.618 15.095c-1.353.599-2.824.848-4.297.866-2.365.029-4.426-.765-6.355-2.065.446-2.283 1.342-4.302 3.034-5.953 1.054-1.029 2.271-1.894 3.651-2.426 3.333-1.286 6.932-.367 9.819 1.543-.691 3.394-2.586 6.588-5.852 8.035zm11.763 6.153c-.532 1.38-1.397 2.597-2.426 3.651-1.651 1.693-3.67 2.588-5.953 3.034-1.299-1.929-2.093-3.99-2.064-6.355.018-1.473.268-2.945.866-4.297 1.448-3.266 4.641-5.161 8.034-5.852 1.911 2.887 2.829 6.486 1.543 9.819zM50 60.731c-.36-1.216-.9-2.393-1.586-3.502a15.539 15.539 0 0 1 3.172 0A14.467 14.467 0 0 0 50 60.731zm9.925 13.23c-2.283-.446-4.302-1.341-5.953-3.034-1.029-1.054-1.894-2.271-2.426-3.651-1.286-3.333-.367-6.932 1.543-9.819 3.393.691 6.587 2.586 8.034 5.852.599 1.353.848 2.824.866 4.297.029 2.365-.765 4.426-2.064 6.355zm7.681-11.972c-1.473-.018-2.945-.267-4.297-.866-3.266-1.448-5.161-4.641-5.852-8.034 2.887-1.911 6.486-2.829 9.819-1.543 1.38.532 2.597 1.397 3.651 2.426 1.693 1.651 2.588 3.67 3.034 5.953-1.93 1.299-3.99 2.093-6.355 2.064z"></path></g><!----></svg>